<svg width="22" height="21" viewBox="0 0 22 21" fill="none" xmlns="http://www.w3.org/2000/svg">
<path fill-rule="evenodd" clip-rule="evenodd" d="M3.46246 0H18.4625C20.1125 0 21.4625 1.35 21.4625 3V18C21.4625 19.65 20.1125 21 18.4625 21H3.46246C1.81246 21 0.462463 19.65 0.462463 18V3C0.462463 1.35 1.81246 0 3.46246 0ZM14.4625 10.5C14.4625 8.57 12.8925 7 10.9625 7C9.03246 7 7.46246 8.57 7.46246 10.5C7.46246 12.43 9.03246 14 10.9625 14C12.8925 14 14.4625 12.43 14.4625 10.5ZM3.46246 18V9H4.64346C4.52506 9.49127 4.46432 9.99467 4.46246 10.5C4.46246 14.0899 7.37261 17 10.9625 17C14.5523 17 17.4625 14.0899 17.4625 10.5C17.4611 9.99464 17.4004 9.49118 17.2815 9H18.4625V18H3.46246ZM14.4625 7H18.4625V3H14.4625V7Z" fill="white"/>
</svg>
