<svg width="27" height="15" viewBox="0 0 27 15" fill="none" xmlns="http://www.w3.org/2000/svg">
<path d="M16.6004 11.51C17.5564 11.201 18.7804 13.55 20.0834 14.449C21.0614 15.13 21.8104 14.983 21.8104 14.983L25.2834 14.933C25.2834 14.933 27.0984 14.821 26.2404 13.379C26.1694 13.259 25.7374 12.31 23.6554 10.357C21.4784 8.31404 21.7734 8.64504 24.3944 5.11304C25.9914 2.96004 26.6304 1.64504 26.4304 1.08504C26.2384 0.546037 25.0654 0.686037 25.0654 0.686037L21.1524 0.713037C20.7714 0.714037 20.4484 0.832037 20.3014 1.22804C20.2984 1.23204 19.6804 2.89404 18.8564 4.30704C17.1154 7.29604 16.4204 7.45504 16.1324 7.26804C15.4714 6.83504 15.6384 5.53104 15.6384 4.60404C15.6384 1.70704 16.0704 0.499037 14.7924 0.187037C14.3654 0.0830374 14.0534 0.0150374 12.9644 0.00503741C11.5724 -0.0159626 10.3904 0.00503743 9.72043 0.334037C9.27543 0.557037 8.93443 1.04604 9.14143 1.07404C9.40143 1.10904 9.98443 1.23404 10.2964 1.66004C10.6974 2.21204 10.6854 3.44904 10.6854 3.44904C10.6854 3.44904 10.9144 6.86004 10.1454 7.28304C9.61743 7.57304 8.89543 6.98104 7.34243 4.26704C6.54943 2.87904 5.95043 1.34504 5.95043 1.34504C5.95043 1.34504 5.83443 1.06004 5.62443 0.904037C5.37443 0.719037 5.02443 0.660037 5.02443 0.660037L1.31043 0.684037C1.31043 0.684037 0.752433 0.700037 0.547433 0.946037C0.365433 1.16404 0.532433 1.61404 0.532433 1.61404C0.532433 1.61404 3.44143 8.49504 6.73543 11.961C9.75543 15.143 13.1874 14.932 13.1874 14.932H14.7424C14.7424 14.932 15.2114 14.878 15.4514 14.62C15.6754 14.38 15.6654 13.929 15.6654 13.929C15.6654 13.929 15.6344 11.82 16.6004 11.51Z" fill="white"/>
</svg>
